<?xml version="1.0" encoding="UTF-8"?>
<svg width="118px" height="50px" viewBox="0 0 118 50" version="1.1" xmlns="http://www.w3.org/2000/svg" xmlns:xlink="http://www.w3.org/1999/xlink">
    <title>casper-labs-logo</title>
    <g id="Design" stroke="none" stroke-width="1" fill="none" fill-rule="evenodd">
        <g id="Enterprise" transform="translate(-40.000000, -24.000000)" fill-rule="nonzero">
            <g id="casper-labs-logo" transform="translate(40.000000, 24.000000)">
                <path d="M41.1389892,38.5902527 C39.9555492,38.5912912 38.9334982,39.4185584 38.6859206,40.5758123 L29.2075812,40.1173285 C29.2378269,39.9383872 29.2535221,39.7572891 29.2545126,39.5758123 C29.253783,39.2489797 29.2069931,38.9238811 29.1155235,38.6101083 L32.5577617,36.6245487 C33.4065757,37.664627 34.920481,37.8594876 36.0050097,37.0682574 C37.0895385,36.2770271 37.3661161,34.7758993 36.6347927,33.6501044 C35.9034693,32.5243096 34.4195266,32.1668269 33.2557712,32.8360962 C32.0920158,33.5053655 31.6546778,34.967766 32.2599278,36.166065 L28.9205776,38.0866426 C28.1291545,36.4011409 26.1536669,35.6341036 24.4322008,36.343907 C22.7107346,37.0537104 21.8499792,38.9902015 22.4765343,40.7436823 L16.2888087,42.2563177 C16.245286,41.409634 15.8941908,40.6079559 15.301444,40.0018051 L16.4259928,38.4566787 C17.6906232,38.8832596 19.0682041,38.2474826 19.5640977,37.0083898 C20.0599913,35.769297 19.501403,34.3586515 18.2916435,33.7949643 C17.081884,33.231277 15.642495,33.7109654 15.0127409,34.8876859 C14.3829867,36.0644064 14.7823058,37.5281297 15.9223827,38.2220217 L14.8953069,39.6462094 C14.1747428,39.0979128 13.2647747,38.8606711 12.368231,38.9873646 L11.2815884,32.8971119 C12.6090755,32.6048044 13.6461848,31.5685338 13.9395661,30.2412836 C14.2329474,28.9140334 13.7292468,27.5371754 12.6486463,26.7125735 C11.5680458,25.8879716 10.1070618,25.7655868 8.90433213,26.398917 L6.21299639,21.1642599 C6.78617802,20.8736841 7.26829525,20.4309107 7.60649819,19.8844765 L9.83754513,20.4747292 C9.81874547,20.5941559 9.80909046,20.7148435 9.80866426,20.8357401 C9.80658502,22.1364025 10.7967827,23.2239762 12.0919386,23.3435517 C13.3870944,23.4631271 14.5596775,22.5752323 14.7957712,21.2961754 C15.0318649,20.0171184 14.2535346,18.7691159 13.0010372,18.4184348 C11.7485398,18.0677538 10.4353246,18.730154 9.97292419,19.9458484 L7.86642599,19.3880866 C8.15252169,18.702476 8.21012021,17.942935 8.03068592,17.2220217 L14.2310469,14.3700361 C15.3902342,15.8110487 17.4724108,16.0972923 18.9774484,15.0225392 C20.4824861,13.9477861 20.8875126,11.8854214 19.900722,10.3212996 L23.8718412,6.44404332 C24.3564667,6.75568337 24.9110466,6.94178401 25.4855596,6.98555957 L25.4855596,8.69314079 C24.1593256,8.83699554 23.1771179,9.99283973 23.2491504,11.3249065 C23.3211829,12.6569733 24.4223047,13.70016 25.7563177,13.70016 C27.0903307,13.70016 28.1914525,12.6569733 28.263485,11.3249065 C28.3355174,9.99283973 27.3533098,8.83699554 26.0270758,8.69314079 L26.0270758,6.97111913 C26.5241388,6.93311194 27.0072969,6.78908774 27.4440433,6.54873646 L31.7942238,11.5180505 C30.7811171,12.8492901 30.8535667,14.7117997 31.9670232,15.9603182 C33.0804798,17.2088368 34.9225905,17.4931233 36.3606377,16.6383693 C37.798685,15.7836154 38.42926,14.0296012 37.8646209,12.4548736 L39.2202166,11.6931408 C40.078692,12.7121367 41.5839357,12.882395 42.6483277,12.0808949 C43.7127197,11.2793948 43.9649912,9.78570632 43.2228623,8.6791 C42.4807335,7.57249368 41.0030651,7.2389632 39.8575525,7.91950234 C38.7120398,8.60004148 38.2982474,10.0572724 38.9151625,11.2382671 L37.6425993,11.9602888 C37.1210094,11.0080764 36.1856898,10.353111 35.1125198,10.1885795 C34.0393498,10.024048 32.9507719,10.3687225 32.16787,11.1209386 L27.9079422,6.25812274 C28.3315206,5.9276722 28.6731172,5.50391951 28.9061372,5.0198556 L32.6353791,5.64079422 C32.9278233,6.93782536 34.1819002,7.78102585 35.4933998,7.56243426 C36.8048994,7.34384268 37.7177031,6.13948166 37.5736645,4.81771531 C37.4296258,3.49594897 36.2788391,2.51646639 34.9510406,2.58549062 C33.623242,2.65451486 32.5802185,3.7480404 32.5740072,5.07761733 L29.1083032,4.50180505 C29.6051752,2.84169194 28.8097439,1.068287 27.2395054,0.335341936 C25.669267,-0.397603124 23.7990615,0.13155431 22.8456178,1.57855204 C21.8921741,3.02554976 22.1438135,4.95281561 23.4368231,6.10649819 L19.5722022,9.86281588 C18.9732935,9.17367022 18.1269785,8.74824294 17.2166065,8.67870036 L17.2166065,6.05054152 C18.5428404,5.90668677 19.5250481,4.75084258 19.4530157,3.41877578 C19.3809832,2.08670897 18.2798614,1.0435223 16.9458484,1.0435223 C15.6118354,1.0435223 14.5107135,2.08670897 14.4386811,3.41877578 C14.3666486,4.75084258 15.3488563,5.90668677 16.6750903,6.05054152 L16.6750903,8.67870036 C15.479451,8.76858337 14.4139407,9.46669381 13.8540999,10.5269817 C13.2942592,11.5872696 13.3186865,12.8608761 13.9187726,13.898917 L7.86101083,16.6823105 C7.6399119,16.1616386 7.29621419,15.7021365 6.85920578,15.3429603 L9.23646209,11.0902527 C9.44452186,11.1446056 9.65860554,11.1725032 9.87364621,11.1732852 C11.1449223,11.1733862 12.215675,10.2233031 12.3668581,8.96104854 C12.5180411,7.69879394 11.7019432,6.52271859 10.4666013,6.22259634 C9.23125936,5.92247409 7.96653099,6.59301954 7.52172347,7.78393904 C7.07691595,8.97485855 7.59240463,10.3103137 8.72202166,10.8935018 L6.4133574,15.0306859 C5.14572805,14.2833155 3.54556158,14.4110929 2.41259835,15.3501568 C1.27963512,16.2892207 0.85719046,17.8378977 1.35639619,19.222181 C1.85560191,20.6064644 3.16924854,21.5290652 4.64079422,21.5288809 C5.00279388,21.5284571 5.36258208,21.4724494 5.70758123,21.3628159 L8.44223827,26.6895307 C7.75180875,27.2004699 7.27373151,27.9477868 7.09927798,28.7888087 L5.11371841,28.2039711 C5.16597361,28.0029533 5.19265845,27.7961458 5.19314079,27.5884477 C5.19481688,26.3126914 4.24083605,25.2378678 2.97390112,25.0880922 C1.70696619,24.9383167 0.528656805,25.7610634 0.232807311,27.0020428 C-0.0630421823,28.2430222 0.617343461,29.5088818 1.81558421,29.9468041 C3.01382496,30.3847264 4.35011513,29.8559034 4.92418773,28.7166065 L7.03971119,29.3375451 C7.03971119,29.3880866 7.03971119,29.4386282 7.03971119,29.4891697 C7.0401574,30.6764229 7.64397632,31.7820643 8.64259928,32.4241877 L7.29241877,34.1967509 C6.28730782,33.3077726 4.76266404,33.3593438 3.81992122,34.3142084 C2.8771784,35.269073 2.84508922,36.7942512 3.74683557,37.7879231 C4.64858192,38.7815951 6.16970736,38.8972481 7.21131983,38.0513321 C8.25293231,37.2054161 8.45180136,35.6929184 7.66425993,34.6064982 L9.1299639,32.6859206 C9.57170231,32.8813587 10.0494498,32.982196 10.532491,32.9819495 C10.6064982,32.9819495 10.6787004,32.9819495 10.7527076,32.9711191 L11.8357401,39.1083032 C10.3840663,39.5356658 9.37303519,40.8496499 9.33193702,42.3623648 C9.29083886,43.8750797 10.2290333,45.2420213 11.6553612,45.7475748 C13.081689,46.2531282 14.6713199,45.7821593 15.5920578,44.5812274 L20.6462094,46.83213 C20.6028132,47.0179655 20.5804107,47.2080844 20.5794224,47.398917 C20.5748459,48.6814093 21.5349171,49.7624418 22.8089732,49.9093732 C24.0830292,50.0563045 25.2639666,49.2221852 25.5514361,47.9723177 C25.8389056,46.7224501 25.1410512,45.4562087 23.9308253,45.0317552 C22.7205994,44.6073017 21.3847095,45.1602631 20.8285199,46.3158845 L15.8844765,44.1101083 C16.1002642,43.7111598 16.2363671,43.2740367 16.2851986,42.8231047 L22.7075812,41.2527076 C23.2009642,42.1533151 24.0662007,42.7906912 25.0725917,42.9948915 C26.0789827,43.1990918 27.1242171,42.9493571 27.9296029,42.3122744 L30.3249097,44.3862816 C29.7641145,45.6052608 30.253757,47.0499916 31.4401287,47.6768278 C32.6265004,48.3036641 34.0959217,47.8940321 34.7869102,46.7438424 C35.4778987,45.5936526 35.1495115,44.1039685 34.0389693,43.3509096 C32.9284271,42.5978508 31.4229685,42.8440038 30.6101083,43.9115523 L28.3231047,41.9386282 C28.6646581,41.5702629 28.9226429,41.1324892 29.0794224,40.6552347 L38.6281588,41.1173285 C38.6371191,42.5021065 39.7655589,43.6181825 41.1503515,43.6118868 C42.5351442,43.6055911 43.6533894,42.4793009 43.6497671,41.0944987 C43.6461272,39.7096965 42.5219907,38.5892861 41.1371841,38.5902527 L41.1389892,38.5902527 Z" id="Path" fill="#FF0012"></path>
                <path d="M88.8935018,19.5306859 L88.8935018,29.2093863 C89.5559567,27.4205776 91.7436823,25.599278 94.5288809,25.599278 C99.0776173,25.5974729 102.259928,29.1768953 102.259928,34.5812274 C102.259928,40.0162455 99.0776173,43.6967509 94.5361011,43.6967509 C91.7184116,43.6967509 89.6299639,42.0054152 88.900722,40.0866426 L88.866426,40.0866426 L88.866426,43.2039711 L84.9223827,43.2039711 L84.9223827,19.5306859 L88.8935018,19.5306859 Z M110.32491,25.6028881 C114.037906,25.6028881 116.823105,27.4909747 117.220217,31.198556 L113.574007,31.198556 C113.299639,29.3086643 111.808664,28.5198556 110.249097,28.5198556 C108.758123,28.5198556 107.465704,29.4223827 107.465704,30.6407942 C107.465704,32.2978339 109.451264,32.7617329 112.33935,33.4259928 C115.357401,34.0884477 117.545126,35.5144404 117.545126,38.265343 C117.545126,41.6805054 114.263538,43.6696751 110.483755,43.6696751 C106.969314,43.6696751 103.655235,42.0776173 103.263538,37.967509 L107.075812,37.967509 C107.407942,39.8574007 108.568592,40.7184116 110.557762,40.7184116 C112.18231,40.7184116 113.705776,40.0559567 113.705776,38.4638989 C113.705776,37.1558752 112.693113,36.7014748 110.958434,36.2547177 L110.509891,36.142698 C110.12385,36.0486651 109.707523,35.951904 109.263538,35.8447653 C106.512635,35.2148014 103.761733,33.9223827 103.761733,30.8068592 C103.761733,27.6913357 106.810469,25.6028881 110.32491,25.6028881 Z M74.7779783,25.5703971 C80.4801444,25.5703971 81.9386282,28.9855596 81.9386282,32.6642599 L81.9386282,39.2617329 C81.9386282,40.5469314 82.0054152,42.3050542 82.2707581,43.200361 L78.3592058,43.200361 C78.2589522,42.5953671 78.2033248,41.9840293 78.1926824,41.3712912 L78.1931408,40.4151625 L78.1588448,40.4151625 C77.5631769,41.9729242 76.0054152,43.6299639 72.7220217,43.6299639 C68.8772563,43.6299639 66.6895307,41.2436823 66.6895307,38.5252708 C66.6895307,33.5523466 72.5234657,33.4205776 74.9765343,33.0216606 C77.2310469,32.6606498 78.1588448,32.3267148 78.1588448,30.900722 C78.1588448,29.4747292 76.933213,28.5541516 74.8447653,28.5541516 C72.9873646,28.5541516 71.6624549,29.5812274 71.5631769,31.3050542 L67.8158845,31.3050542 C67.9819495,28.4873646 70.2039711,25.5703971 74.7779783,25.5703971 Z M54.8212996,19.5306859 L54.8212996,39.8176895 L65.9602888,39.8176895 L65.9602888,43.200361 L50.8104693,43.200361 L50.8104693,19.5306859 L54.8212996,19.5306859 Z M78.2581227,33.5198556 C77.8610108,34.5469314 76.898917,35.3429603 74.0812274,35.8393502 C71.734657,36.2707581 70.5018051,36.933213 70.5018051,38.4584838 C70.5018051,39.8176895 71.6949458,40.8050542 73.6841155,40.8050542 C76.0306859,40.8050542 78.2581227,39.1155235 78.2581227,35.3032491 L78.2581227,33.5198556 Z M93.5072202,28.7454874 C90.5559567,28.7454874 88.732852,31.032491 88.599278,34.2166065 L88.599278,34.5776173 C88.599278,37.9584838 90.4566787,40.5108343 93.5072202,40.5108343 C96.4909747,40.5144404 98.3754513,38.0866426 98.3754513,34.5812274 L98.3808664,34.5812274 C98.3808664,31.099278 96.4259928,28.7454874 93.5072202,28.7454874 Z M72.9620939,9.78880866 C74.465704,9.78880866 75.5397112,11.0108303 75.5397112,12.7599278 C75.5397112,14.5252708 74.465704,15.7743682 72.9638989,15.7743682 C71.9873646,15.7743682 71.3519856,15.2599278 71.1209386,14.5794224 L71.1191336,14.5794224 L71.1191336,17.7906137 L69.8158845,17.7906137 L69.8158845,9.94223827 L71.1191336,9.94223827 L71.1191336,10.9729242 C71.3285199,10.3592058 71.9855596,9.78880866 72.9620939,9.78880866 Z M78.765343,9.79241877 C80.6949458,9.79241877 81.4837545,11.2833935 81.4945848,12.8844765 L81.5018051,13.1227437 L77.1389892,13.1227437 C77.2274368,14.1516245 77.8844765,14.7472924 78.7635379,14.7472924 C79.4097473,14.7472924 79.9476534,14.5072202 80.1552347,13.9368231 L81.4187726,13.9368231 C81.0776173,15.0884477 80.1028881,15.767148 78.765343,15.767148 C77.066787,15.767148 75.9043321,14.5505415 75.9043321,12.7635379 C75.9043321,11.0433213 77.1101083,9.79241877 78.765343,9.79241877 Z M66.7797834,9.78158845 C68.0072202,9.78158845 68.9277978,10.4079422 69.0595668,11.6353791 L67.8537906,11.6353791 C67.767148,11.0108303 67.2743682,10.7545126 66.7581227,10.7545126 C66.265343,10.7545126 65.8375451,11.0505415 65.8375451,11.4566787 C65.8375451,11.9981949 66.4963899,12.1570397 67.4494585,12.3772563 C68.4476534,12.5956679 69.1696751,13.066787 69.1696751,13.9765343 C69.1696751,15.1064982 68.0866426,15.7635379 66.8357401,15.7635379 C65.6732852,15.7635379 64.5776173,15.2382671 64.4458484,13.8790614 L65.7093863,13.8790614 C65.8194946,14.5036101 66.2039711,14.7815884 66.8610108,14.7815884 C67.4025271,14.7815884 67.9025271,14.5613718 67.9025271,14.0361011 C67.9025271,13.4765343 67.3429603,13.3880866 66.433213,13.1696751 C65.5234657,12.9512635 64.6137184,12.534296 64.6137184,11.5036101 C64.6137184,10.4729242 65.6227437,9.78158845 66.7797834,9.78158845 Z M54.8068592,7.64079422 C56.7797834,7.64079422 57.9314079,8.66064982 58.4169675,10.1841155 L57.101083,10.1841155 C56.6841155,9.24187726 56.0054152,8.7599278 54.8104693,8.7599278 C53.1444043,8.7599278 52.1462094,10.0631769 52.1462094,11.6967509 C52.1462094,13.3303249 53.1444043,14.6353791 54.8104693,14.6353791 C56.0938628,14.6353791 56.7833935,14.0649819 57.101083,13.2093863 L58.4169675,13.2093863 C58.0451264,14.66787 56.7509025,15.7527076 54.7888087,15.7527076 C52.3447653,15.7527076 50.8176895,14.0216606 50.8176895,11.6967509 C50.8176895,9.37184116 52.3628159,7.64079422 54.8068592,7.64079422 Z M61.4945848,9.77075812 C63.3790614,9.77075812 63.8610108,10.900722 63.8610108,12.1173285 L63.8610108,14.3050542 C63.8491009,14.7429831 63.8872543,15.1808394 63.9747292,15.6101083 L62.6805054,15.6101083 C62.6397682,15.3601414 62.6216444,15.1070114 62.6263538,14.8537906 L62.6263538,14.6895307 L62.6155235,14.6895307 C62.4187726,15.2039711 61.9025271,15.7527076 60.8104693,15.7527076 C59.5469314,15.7527076 58.8158845,14.9638989 58.8158845,14.0649819 C58.8158845,12.4205776 60.7454874,12.3772563 61.5559567,12.2454874 C62.301444,12.1245487 62.6083032,12.0144404 62.6083032,11.5433213 C62.6083032,11.0722022 62.2021661,10.765343 61.5126354,10.765343 C60.898917,10.765343 60.4602888,11.1046931 60.4296029,11.66787 L59.1913357,11.66787 C59.2472924,10.7364621 59.9819495,9.77075812 61.4945848,9.77075812 Z M85.1263538,9.83391239 L85.1263538,11.0974729 C84.0451264,11.1155235 83.4530686,11.8068592 83.4530686,12.9241877 L83.4530686,15.6101083 L82.1895307,15.6101083 L82.1895307,9.94223827 L83.4386282,9.94223827 L83.4386282,11.1480144 L83.4602888,11.1480144 C83.6412719,10.3750742 84.3325182,9.82986585 85.1263538,9.83391239 Z M62.6480144,12.4097473 C62.5162455,12.7490975 62.198556,13.0126354 61.267148,13.1768953 C60.4891697,13.3194946 60.0830325,13.5379061 60.0830325,14.0433213 C60.0830325,14.4927798 60.4783394,14.8212996 61.1353791,14.8212996 C61.9133574,14.8212996 62.6480144,14.2617329 62.6480144,13.0018051 L62.6480144,12.4097473 Z M72.6462094,10.8303249 C71.6498195,10.8303249 71.066787,11.5866426 71.0216606,12.6353791 L71.0216606,12.7563177 C71.0216606,13.8754513 71.5361011,14.7184228 72.6462094,14.7184228 C73.6642599,14.7220217 74.2563177,13.8555957 74.2563177,12.7599278 C74.2563177,11.6768953 73.6425993,10.8303249 72.6462094,10.8303249 Z M78.7581227,10.7761733 C77.8808664,10.7761733 77.2888087,11.3357401 77.1570397,12.200361 L80.2382671,12.200361 C80.1498195,11.3140794 79.6353791,10.7761733 78.7581227,10.7761733 Z" id="Combined-Shape" fill="#ffffff"></path>
            </g>
        </g>
    </g>
</svg>
