<svg xmlns="http://www.w3.org/2000/svg" viewBox="0 0 500 500"><path fill="#ffffff" d="M408 67.5c0-5.9-4.3-10.9-10.1-11.8L221.8 27.5c-.6-.1-1.3-.2-1.9-.2h-.1c-.5 0-1.6.1-1.8.1L58.7 52.9l-17.1 2.7c-5.8.9-10.1 5.9-10.1 11.8v257.1c0 60.2 126.2 124 183.8 147.3 1.1.4 2.2.7 3.3.8.4 0 .8.1 1.1.1 1.5 0 3-.3 4.4-.9 32.9-13.2 88-39.6 129.2-71 3.2-2.5 6.6-5 9.6-7.5 11.6-9.5 21.7-19.4 29.4-29.5 2.3-3.1 6.6-9.8 7.7-11.7 2-3.6 3.6-7.2 4.9-10.8 1.9-5.4 2.9-10.9 2.9-16.4V67.5h.2zM393.6 319c0 1.3-.1 2.5-.2 3.8-.4 3.8-1.2 7.6-2.5 11.3-1.2 3.4-2.7 6.7-4.5 10-1 1.8-5 8-7.1 10.8-7.1 9.3-16.4 18.5-27.2 27.3-2.7 2.3-5.9 4.6-8.9 7-38 29-89 53.4-119.3 65.6-1.3.5-2.7.8-4.1.8-1.4 0-2.8-.3-4.1-.8C162.5 433.3 46 374.5 46 318.8V81.4c0-5.4 3.9-10 9.3-10.9L71 68l147.1-23.5c.6-.1 1.2-.1 1.7-.1.6 0 1.2 0 1.7.1L374.8 69l9.5 1.5c2.7.4 5 1.8 6.7 3.7.4.5.8 1 1.1 1.6.6 1.1 1.1 2.3 1.3 3.6.1.6.2 1.3.2 2V319z"></path><path fill="#ffffff" d="M232.8 199.2c6.8 0 12.3-5.5 12.3-12.3s-5.5-12.3-12.3-12.3h-95c-1 0-1.7.8-1.7 1.7v10.6c0 6.6 5.2 12 11.7 12.4l85-.1z"></path><path fill="#ffffff" d="M256.2 102.7H155.6c-1 0-1.7.8-1.7 1.7V115c0 6.6 5.2 12 11.7 12.4l85.5-.2c3.2 0 6.1.1 6.1.1 31.5 1.5 56.6 27.7 56.6 59.6 0 32.2-25.6 58.3-57.5 59.3h-90c-.6 0-1.2 0-1.8.1-5.6.8-10 5.5-10.4 11.3v121.5c0 1 .8 1.7 1.7 1.7h10.6c6.6 0 12-5.2 12.4-11.7v-96.7c0-.8.8-1.5 1.6-1.5l77.7-.1c6.7-.3 13.2-1.4 19.4-3.1 35.3-10.1 61.1-42.4 61.1-80.9-.2-45.8-36.8-83-82.4-84.1z"></path></svg>
